<?xml version="1.0" encoding="UTF-8" standalone="no"?>
<!DOCTYPE svg PUBLIC "-//W3C//DTD SVG 1.1//EN"
 "http://www.w3.org/Graphics/SVG/1.1/DTD/svg11.dtd">
<!-- Generated by graphviz version 5.0.0 (0)
 -->
<!-- Title: snakemake_dag Pages: 1 -->
<svg width="567pt" height="764pt"
 viewBox="0.00 0.00 567.00 764.00" xmlns="http://www.w3.org/2000/svg" xmlns:xlink="http://www.w3.org/1999/xlink">
<g id="graph0" class="graph" transform="scale(1 1) rotate(0) translate(4 760)">
<title>snakemake_dag</title>
<polygon fill="white" stroke="transparent" points="-4,4 -4,-760 563,-760 563,4 -4,4"/>
<!-- 0 -->
<g id="node1" class="node">
<title>0</title>
<path fill="none" stroke="#566bd8" stroke-width="2" d="M203,-36C203,-36 173,-36 173,-36 167,-36 161,-30 161,-24 161,-24 161,-12 161,-12 161,-6 167,0 173,0 173,0 203,0 203,0 209,0 215,-6 215,-12 215,-12 215,-24 215,-24 215,-30 209,-36 203,-36"/>
<text text-anchor="middle" x="188" y="-15.5" font-family="sans" font-size="10.00">all</text>
</g>
<!-- 1 -->
<g id="node2" class="node">
<title>1</title>
<path fill="none" stroke="#5682d8" stroke-width="2" d="M78,-108C78,-108 12,-108 12,-108 6,-108 0,-102 0,-96 0,-96 0,-84 0,-84 0,-78 6,-72 12,-72 12,-72 78,-72 78,-72 84,-72 90,-78 90,-84 90,-84 90,-96 90,-96 90,-102 84,-108 78,-108"/>
<text text-anchor="middle" x="45" y="-87.5" font-family="sans" font-size="10.00">diffexp_qc_plots</text>
</g>
<!-- 1&#45;&gt;0 -->
<g id="edge2" class="edge">
<title>1&#45;&gt;0</title>
<path fill="none" stroke="grey" stroke-width="2" d="M79.98,-71.88C101.83,-61.18 129.9,-47.44 151.95,-36.65"/>
<polygon fill="grey" stroke="grey" stroke-width="2" points="153.55,-39.76 160.99,-32.22 150.47,-33.47 153.55,-39.76"/>
</g>
<!-- 2 -->
<g id="node3" class="node">
<title>2</title>
<path fill="none" stroke="#d8cb56" stroke-width="2" d="M201,-252C201,-252 157,-252 157,-252 151,-252 145,-246 145,-240 145,-240 145,-228 145,-228 145,-222 151,-216 157,-216 157,-216 201,-216 201,-216 207,-216 213,-222 213,-228 213,-228 213,-240 213,-240 213,-246 207,-252 201,-252"/>
<text text-anchor="middle" x="179" y="-231.5" font-family="sans" font-size="10.00">count_eset</text>
</g>
<!-- 2&#45;&gt;1 -->
<g id="edge5" class="edge">
<title>2&#45;&gt;1</title>
<path fill="none" stroke="grey" stroke-width="2" d="M162.84,-215.87C139.29,-190.92 95.44,-144.45 68.38,-115.77"/>
<polygon fill="grey" stroke="grey" stroke-width="2" points="70.63,-113.06 61.22,-108.19 65.54,-117.86 70.63,-113.06"/>
</g>
<!-- 15 -->
<g id="node16" class="node">
<title>15</title>
<path fill="none" stroke="#88d856" stroke-width="2" d="M243.5,-180C243.5,-180 184.5,-180 184.5,-180 178.5,-180 172.5,-174 172.5,-168 172.5,-168 172.5,-156 172.5,-156 172.5,-150 178.5,-144 184.5,-144 184.5,-144 243.5,-144 243.5,-144 249.5,-144 255.5,-150 255.5,-156 255.5,-156 255.5,-168 255.5,-168 255.5,-174 249.5,-180 243.5,-180"/>
<text text-anchor="middle" x="214" y="-159.5" font-family="sans" font-size="10.00">diffexp_results</text>
</g>
<!-- 2&#45;&gt;15 -->
<g id="edge24" class="edge">
<title>2&#45;&gt;15</title>
<path fill="none" stroke="grey" stroke-width="2" d="M187.65,-215.7C191.64,-207.73 196.45,-198.1 200.87,-189.26"/>
<polygon fill="grey" stroke="grey" stroke-width="2" points="204.11,-190.61 205.45,-180.1 197.85,-187.48 204.11,-190.61"/>
</g>
<!-- 16 -->
<g id="node17" class="node">
<title>16</title>
<path fill="none" stroke="#d89c56" stroke-width="2" d="M184,-108C184,-108 120,-108 120,-108 114,-108 108,-102 108,-96 108,-96 108,-84 108,-84 108,-78 114,-72 120,-72 120,-72 184,-72 184,-72 190,-72 196,-78 196,-84 196,-84 196,-96 196,-96 196,-102 190,-108 184,-108"/>
<text text-anchor="middle" x="152" y="-87.5" font-family="sans" font-size="10.00">diffexp_volcano</text>
</g>
<!-- 2&#45;&gt;16 -->
<g id="edge25" class="edge">
<title>2&#45;&gt;16</title>
<path fill="none" stroke="grey" stroke-width="2" d="M172.91,-215.53C169.54,-205.29 165.54,-192.04 163,-180 158.69,-159.56 155.87,-136.1 154.17,-118.4"/>
<polygon fill="grey" stroke="grey" stroke-width="2" points="157.64,-117.85 153.25,-108.2 150.66,-118.48 157.64,-117.85"/>
</g>
<!-- 18 -->
<g id="node19" class="node">
<title>18</title>
<path fill="none" stroke="#56c9d8" stroke-width="2" d="M328.5,-180C328.5,-180 285.5,-180 285.5,-180 279.5,-180 273.5,-174 273.5,-168 273.5,-168 273.5,-156 273.5,-156 273.5,-150 279.5,-144 285.5,-144 285.5,-144 328.5,-144 328.5,-144 334.5,-144 340.5,-150 340.5,-156 340.5,-156 340.5,-168 340.5,-168 340.5,-174 334.5,-180 328.5,-180"/>
<text text-anchor="middle" x="307" y="-159.5" font-family="sans" font-size="10.00">norm_eset</text>
</g>
<!-- 2&#45;&gt;18 -->
<g id="edge29" class="edge">
<title>2&#45;&gt;18</title>
<path fill="none" stroke="grey" stroke-width="2" d="M210.31,-215.88C227.2,-206.64 248.25,-195.13 266.38,-185.21"/>
<polygon fill="grey" stroke="grey" stroke-width="2" points="268.47,-188.06 275.57,-180.19 265.11,-181.92 268.47,-188.06"/>
</g>
<!-- 3 -->
<g id="node4" class="node">
<title>3</title>
<path fill="none" stroke="#56d882" stroke-width="2" d="M263,-324C263,-324 187,-324 187,-324 181,-324 175,-318 175,-312 175,-312 175,-300 175,-300 175,-294 181,-288 187,-288 187,-288 263,-288 263,-288 269,-288 275,-294 275,-300 275,-300 275,-312 275,-312 275,-318 269,-324 263,-324"/>
<text text-anchor="middle" x="225" y="-303.5" font-family="sans" font-size="10.00">star_count_matrix</text>
</g>
<!-- 3&#45;&gt;2 -->
<g id="edge7" class="edge">
<title>3&#45;&gt;2</title>
<path fill="none" stroke="grey" stroke-width="2" d="M213.63,-287.7C208.28,-279.56 201.8,-269.69 195.89,-260.7"/>
<polygon fill="grey" stroke="grey" stroke-width="2" points="198.66,-258.54 190.24,-252.1 192.81,-262.38 198.66,-258.54"/>
</g>
<!-- 4 -->
<g id="node5" class="node">
<title>4</title>
<path fill="none" stroke="#56d86b" stroke-width="2" d="M351,-468C351,-468 283,-468 283,-468 277,-468 271,-462 271,-456 271,-456 271,-444 271,-444 271,-438 277,-432 283,-432 283,-432 351,-432 351,-432 357,-432 363,-438 363,-444 363,-444 363,-456 363,-456 363,-462 357,-468 351,-468"/>
<text text-anchor="middle" x="317" y="-447.5" font-family="sans" font-size="10.00">star_align_pass2</text>
</g>
<!-- 4&#45;&gt;3 -->
<g id="edge8" class="edge">
<title>4&#45;&gt;3</title>
<path fill="none" stroke="grey" stroke-width="2" d="M316.91,-431.89C316.04,-412.88 312.3,-381.99 298,-360 290.17,-347.96 278.58,-337.74 266.92,-329.58"/>
<polygon fill="grey" stroke="grey" stroke-width="2" points="268.75,-326.6 258.48,-324.01 264.9,-332.44 268.75,-326.6"/>
</g>
<!-- 12 -->
<g id="node13" class="node">
<title>12</title>
<path fill="none" stroke="#56b1d8" stroke-width="2" d="M277,-396C277,-396 173,-396 173,-396 167,-396 161,-390 161,-384 161,-384 161,-372 161,-372 161,-366 167,-360 173,-360 173,-360 277,-360 277,-360 283,-360 289,-366 289,-372 289,-372 289,-384 289,-384 289,-390 283,-396 277,-396"/>
<text text-anchor="middle" x="225" y="-375.5" font-family="sans" font-size="10.00">rseqc_infer_experiment</text>
</g>
<!-- 4&#45;&gt;12 -->
<g id="edge20" class="edge">
<title>4&#45;&gt;12</title>
<path fill="none" stroke="grey" stroke-width="2" d="M294.26,-431.7C282.56,-422.8 268.14,-411.82 255.49,-402.2"/>
<polygon fill="grey" stroke="grey" stroke-width="2" points="257.56,-399.37 247.48,-396.1 253.32,-404.94 257.56,-399.37"/>
</g>
<!-- 5 -->
<g id="node6" class="node">
<title>5</title>
<path fill="none" stroke="#ced856" stroke-width="2" d="M342,-684C342,-684 302,-684 302,-684 296,-684 290,-678 290,-672 290,-672 290,-660 290,-660 290,-654 296,-648 302,-648 302,-648 342,-648 342,-648 348,-648 354,-654 354,-660 354,-660 354,-672 354,-672 354,-678 348,-684 342,-684"/>
<text text-anchor="middle" x="322" y="-663.5" font-family="sans" font-size="10.00">star_index</text>
</g>
<!-- 5&#45;&gt;4 -->
<g id="edge11" class="edge">
<title>5&#45;&gt;4</title>
<path fill="none" stroke="grey" stroke-width="2" d="M321.6,-647.85C320.73,-610.83 318.69,-523.18 317.64,-478.39"/>
<polygon fill="grey" stroke="grey" stroke-width="2" points="321.14,-478.15 317.4,-468.23 314.14,-478.31 321.14,-478.15"/>
</g>
<!-- 11 -->
<g id="node12" class="node">
<title>11</title>
<path fill="none" stroke="#d88556" stroke-width="2" d="M428,-612C428,-612 360,-612 360,-612 354,-612 348,-606 348,-600 348,-600 348,-588 348,-588 348,-582 354,-576 360,-576 360,-576 428,-576 428,-576 434,-576 440,-582 440,-588 440,-588 440,-600 440,-600 440,-606 434,-612 428,-612"/>
<text text-anchor="middle" x="394" y="-591.5" font-family="sans" font-size="10.00">star_align_pass1</text>
</g>
<!-- 5&#45;&gt;11 -->
<g id="edge18" class="edge">
<title>5&#45;&gt;11</title>
<path fill="none" stroke="grey" stroke-width="2" d="M339.8,-647.7C348.6,-639.14 359.38,-628.66 369,-619.3"/>
<polygon fill="grey" stroke="grey" stroke-width="2" points="371.68,-621.58 376.41,-612.1 366.8,-616.57 371.68,-621.58"/>
</g>
<!-- 6 -->
<g id="node7" class="node">
<title>6</title>
<path fill="none" stroke="#70d856" stroke-width="2" d="M369,-756C369,-756 271,-756 271,-756 265,-756 259,-750 259,-744 259,-744 259,-732 259,-732 259,-726 265,-720 271,-720 271,-720 369,-720 369,-720 375,-720 381,-726 381,-732 381,-732 381,-744 381,-744 381,-750 375,-756 369,-756"/>
<text text-anchor="middle" x="320" y="-735.5" font-family="sans" font-size="10.00">gencode_genome_seq</text>
</g>
<!-- 6&#45;&gt;5 -->
<g id="edge14" class="edge">
<title>6&#45;&gt;5</title>
<path fill="none" stroke="grey" stroke-width="2" d="M320.49,-719.7C320.71,-711.98 320.98,-702.71 321.23,-694.11"/>
<polygon fill="grey" stroke="grey" stroke-width="2" points="324.72,-694.2 321.51,-684.1 317.73,-694 324.72,-694.2"/>
</g>
<!-- 7 -->
<g id="node8" class="node">
<title>7</title>
<path fill="none" stroke="#59d856" stroke-width="2" d="M260,-684C260,-684 152,-684 152,-684 146,-684 140,-678 140,-672 140,-672 140,-660 140,-660 140,-654 146,-648 152,-648 152,-648 260,-648 260,-648 266,-648 272,-654 272,-660 272,-660 272,-672 272,-672 272,-678 266,-684 260,-684"/>
<text text-anchor="middle" x="206" y="-663.5" font-family="sans" font-size="10.00">gencode_genome_annot</text>
</g>
<!-- 7&#45;&gt;4 -->
<g id="edge10" class="edge">
<title>7&#45;&gt;4</title>
<path fill="none" stroke="grey" stroke-width="2" d="M214.9,-647.85C234.26,-610.52 280.33,-521.69 303.38,-477.26"/>
<polygon fill="grey" stroke="grey" stroke-width="2" points="306.56,-478.72 308.06,-468.23 300.35,-475.5 306.56,-478.72"/>
</g>
<!-- 7&#45;&gt;11 -->
<g id="edge17" class="edge">
<title>7&#45;&gt;11</title>
<path fill="none" stroke="grey" stroke-width="2" d="M251.99,-647.88C278.15,-638.14 311.09,-625.87 338.65,-615.61"/>
<polygon fill="grey" stroke="grey" stroke-width="2" points="340.01,-618.84 348.16,-612.07 337.57,-612.28 340.01,-618.84"/>
</g>
<!-- 13 -->
<g id="node14" class="node">
<title>13</title>
<path fill="none" stroke="#b6d856" stroke-width="2" d="M239,-540C239,-540 173,-540 173,-540 167,-540 161,-534 161,-528 161,-528 161,-516 161,-516 161,-510 167,-504 173,-504 173,-504 239,-504 239,-504 245,-504 251,-510 251,-516 251,-516 251,-528 251,-528 251,-534 245,-540 239,-540"/>
<text text-anchor="middle" x="206" y="-519.5" font-family="sans" font-size="10.00">gffutils_gtf2bed</text>
</g>
<!-- 7&#45;&gt;13 -->
<g id="edge22" class="edge">
<title>7&#45;&gt;13</title>
<path fill="none" stroke="grey" stroke-width="2" d="M206,-647.87C206,-623.67 206,-579.21 206,-550.39"/>
<polygon fill="grey" stroke="grey" stroke-width="2" points="209.5,-550.19 206,-540.19 202.5,-550.19 209.5,-550.19"/>
</g>
<!-- 14 -->
<g id="node15" class="node">
<title>14</title>
<path fill="none" stroke="#d86e56" stroke-width="2" d="M166,-468C166,-468 100,-468 100,-468 94,-468 88,-462 88,-456 88,-456 88,-444 88,-444 88,-438 94,-432 100,-432 100,-432 166,-432 166,-432 172,-432 178,-438 178,-444 178,-444 178,-456 178,-456 178,-462 172,-468 166,-468"/>
<text text-anchor="middle" x="133" y="-447.5" font-family="sans" font-size="10.00">gtf_gene_annot</text>
</g>
<!-- 7&#45;&gt;14 -->
<g id="edge23" class="edge">
<title>7&#45;&gt;14</title>
<path fill="none" stroke="grey" stroke-width="2" d="M197.18,-647.62C185.43,-623.85 164.65,-579.63 152,-540 145.52,-519.71 140.6,-496.12 137.39,-478.32"/>
<polygon fill="grey" stroke="grey" stroke-width="2" points="140.81,-477.58 135.65,-468.32 133.92,-478.78 140.81,-477.58"/>
</g>
<!-- 8 -->
<g id="node9" class="node">
<title>8</title>
<path fill="none" stroke="#56d8c9" stroke-width="2" d="M531.5,-684C531.5,-684 422.5,-684 422.5,-684 416.5,-684 410.5,-678 410.5,-672 410.5,-672 410.5,-660 410.5,-660 410.5,-654 416.5,-648 422.5,-648 422.5,-648 531.5,-648 531.5,-648 537.5,-648 543.5,-654 543.5,-660 543.5,-660 543.5,-672 543.5,-672 543.5,-678 537.5,-684 531.5,-684"/>
<text text-anchor="middle" x="477" y="-663.5" font-family="sans" font-size="10.00">bbmap_max_read_length</text>
</g>
<!-- 8&#45;&gt;4 -->
<g id="edge13" class="edge">
<title>8&#45;&gt;4</title>
<path fill="none" stroke="grey" stroke-width="2" d="M480.28,-647.82C485.35,-615.84 491.32,-546.55 458,-504 437.57,-477.92 402.84,-464.67 372.95,-457.94"/>
<polygon fill="grey" stroke="grey" stroke-width="2" points="373.53,-454.49 363.03,-455.9 372.12,-461.34 373.53,-454.49"/>
</g>
<!-- 8&#45;&gt;11 -->
<g id="edge19" class="edge">
<title>8&#45;&gt;11</title>
<path fill="none" stroke="grey" stroke-width="2" d="M456.48,-647.7C446.13,-638.97 433.41,-628.24 422.16,-618.75"/>
<polygon fill="grey" stroke="grey" stroke-width="2" points="424.18,-615.88 414.28,-612.1 419.67,-621.23 424.18,-615.88"/>
</g>
<!-- 9 -->
<g id="node10" class="node">
<title>9</title>
<path fill="none" stroke="#d85656" stroke-width="2" d="M547,-756C547,-756 411,-756 411,-756 405,-756 399,-750 399,-744 399,-744 399,-732 399,-732 399,-726 405,-720 411,-720 411,-720 547,-720 547,-720 553,-720 559,-726 559,-732 559,-732 559,-744 559,-744 559,-750 553,-756 547,-756"/>
<text text-anchor="middle" x="479" y="-735.5" font-family="sans" font-size="10.00">bbmap_read_length_histogram</text>
</g>
<!-- 9&#45;&gt;8 -->
<g id="edge15" class="edge">
<title>9&#45;&gt;8</title>
<path fill="none" stroke="grey" stroke-width="2" d="M478.51,-719.7C478.29,-711.98 478.02,-702.71 477.77,-694.11"/>
<polygon fill="grey" stroke="grey" stroke-width="2" points="481.27,-694 477.49,-684.1 474.28,-694.2 481.27,-694"/>
</g>
<!-- 10 -->
<g id="node11" class="node">
<title>10</title>
<path fill="none" stroke="#9fd856" stroke-width="2" d="M437,-540C437,-540 357,-540 357,-540 351,-540 345,-534 345,-528 345,-528 345,-516 345,-516 345,-510 351,-504 357,-504 357,-504 437,-504 437,-504 443,-504 449,-510 449,-516 449,-516 449,-528 449,-528 449,-534 443,-540 437,-540"/>
<text text-anchor="middle" x="397" y="-519.5" font-family="sans" font-size="10.00">star_filter_pass1_sj</text>
</g>
<!-- 10&#45;&gt;4 -->
<g id="edge12" class="edge">
<title>10&#45;&gt;4</title>
<path fill="none" stroke="grey" stroke-width="2" d="M377.22,-503.7C367.25,-494.97 354.99,-484.24 344.14,-474.75"/>
<polygon fill="grey" stroke="grey" stroke-width="2" points="346.38,-472.06 336.55,-468.1 341.77,-477.32 346.38,-472.06"/>
</g>
<!-- 11&#45;&gt;10 -->
<g id="edge16" class="edge">
<title>11&#45;&gt;10</title>
<path fill="none" stroke="grey" stroke-width="2" d="M394.74,-575.7C395.07,-567.98 395.47,-558.71 395.84,-550.11"/>
<polygon fill="grey" stroke="grey" stroke-width="2" points="399.34,-550.25 396.27,-540.1 392.34,-549.95 399.34,-550.25"/>
</g>
<!-- 12&#45;&gt;3 -->
<g id="edge9" class="edge">
<title>12&#45;&gt;3</title>
<path fill="none" stroke="grey" stroke-width="2" d="M225,-359.7C225,-351.98 225,-342.71 225,-334.11"/>
<polygon fill="grey" stroke="grey" stroke-width="2" points="228.5,-334.1 225,-324.1 221.5,-334.1 228.5,-334.1"/>
</g>
<!-- 13&#45;&gt;12 -->
<g id="edge21" class="edge">
<title>13&#45;&gt;12</title>
<path fill="none" stroke="grey" stroke-width="2" d="M208.29,-503.87C211.53,-479.67 217.48,-435.21 221.33,-406.39"/>
<polygon fill="grey" stroke="grey" stroke-width="2" points="224.84,-406.57 222.7,-396.19 217.9,-405.64 224.84,-406.57"/>
</g>
<!-- 14&#45;&gt;2 -->
<g id="edge6" class="edge">
<title>14&#45;&gt;2</title>
<path fill="none" stroke="grey" stroke-width="2" d="M136.35,-431.56C142.08,-401.97 154.29,-340.05 166,-288 167.9,-279.55 170.1,-270.38 172.15,-262.08"/>
<polygon fill="grey" stroke="grey" stroke-width="2" points="175.6,-262.7 174.62,-252.15 168.81,-261.01 175.6,-262.7"/>
</g>
<!-- 15&#45;&gt;0 -->
<g id="edge4" class="edge">
<title>15&#45;&gt;0</title>
<path fill="none" stroke="grey" stroke-width="2" d="M213.33,-143.78C212.38,-125.73 210.14,-96.63 205,-72 203.2,-63.39 200.54,-54.21 197.85,-45.94"/>
<polygon fill="grey" stroke="grey" stroke-width="2" points="201.14,-44.76 194.61,-36.42 194.51,-47.01 201.14,-44.76"/>
</g>
<!-- 15&#45;&gt;16 -->
<g id="edge26" class="edge">
<title>15&#45;&gt;16</title>
<path fill="none" stroke="grey" stroke-width="2" d="M198.67,-143.7C191.24,-135.3 182.18,-125.07 174.02,-115.86"/>
<polygon fill="grey" stroke="grey" stroke-width="2" points="176.4,-113.27 167.15,-108.1 171.16,-117.91 176.4,-113.27"/>
</g>
<!-- 17 -->
<g id="node18" class="node">
<title>17</title>
<path fill="none" stroke="#d8b456" stroke-width="2" d="M334,-108C334,-108 264,-108 264,-108 258,-108 252,-102 252,-96 252,-96 252,-84 252,-84 252,-78 258,-72 264,-72 264,-72 334,-72 334,-72 340,-72 346,-78 346,-84 346,-84 346,-96 346,-96 346,-102 340,-108 334,-108"/>
<text text-anchor="middle" x="299" y="-87.5" font-family="sans" font-size="10.00">diffexp_heatmap</text>
</g>
<!-- 15&#45;&gt;17 -->
<g id="edge28" class="edge">
<title>15&#45;&gt;17</title>
<path fill="none" stroke="grey" stroke-width="2" d="M235.01,-143.7C245.72,-134.88 258.89,-124.03 270.5,-114.47"/>
<polygon fill="grey" stroke="grey" stroke-width="2" points="272.74,-117.16 278.23,-108.1 268.29,-111.76 272.74,-117.16"/>
</g>
<!-- 16&#45;&gt;0 -->
<g id="edge3" class="edge">
<title>16&#45;&gt;0</title>
<path fill="none" stroke="grey" stroke-width="2" d="M160.9,-71.7C165,-63.73 169.95,-54.1 174.49,-45.26"/>
<polygon fill="grey" stroke="grey" stroke-width="2" points="177.74,-46.6 179.2,-36.1 171.52,-43.4 177.74,-46.6"/>
</g>
<!-- 17&#45;&gt;0 -->
<g id="edge1" class="edge">
<title>17&#45;&gt;0</title>
<path fill="none" stroke="grey" stroke-width="2" d="M271.85,-71.88C257.47,-62.81 239.62,-51.55 224.09,-41.76"/>
<polygon fill="grey" stroke="grey" stroke-width="2" points="225.58,-38.56 215.26,-36.19 221.85,-44.48 225.58,-38.56"/>
</g>
<!-- 18&#45;&gt;17 -->
<g id="edge27" class="edge">
<title>18&#45;&gt;17</title>
<path fill="none" stroke="grey" stroke-width="2" d="M305.02,-143.7C304.14,-135.98 303.08,-126.71 302.1,-118.11"/>
<polygon fill="grey" stroke="grey" stroke-width="2" points="305.57,-117.64 300.95,-108.1 298.61,-118.44 305.57,-117.64"/>
</g>
</g>
</svg>
