<?xml version="1.0" encoding="UTF-8" standalone="no"?>
<!DOCTYPE svg PUBLIC "-//W3C//DTD SVG 1.1//EN"
 "http://www.w3.org/Graphics/SVG/1.1/DTD/svg11.dtd">
<!-- Generated by graphviz version 5.0.0 (0)
 -->
<!-- Title: snakemake_dag Pages: 1 -->
<svg width="559pt" height="764pt"
 viewBox="0.00 0.00 559.00 764.00" xmlns="http://www.w3.org/2000/svg" xmlns:xlink="http://www.w3.org/1999/xlink">
<g id="graph0" class="graph" transform="scale(1 1) rotate(0) translate(4 760)">
<title>snakemake_dag</title>
<polygon fill="white" stroke="transparent" points="-4,4 -4,-760 555,-760 555,4 -4,4"/>
<!-- 0 -->
<g id="node1" class="node">
<title>0</title>
<path fill="none" stroke="#569ad8" stroke-width="2" d="M225,-36C225,-36 195,-36 195,-36 189,-36 183,-30 183,-24 183,-24 183,-12 183,-12 183,-6 189,0 195,0 195,0 225,0 225,0 231,0 237,-6 237,-12 237,-12 237,-24 237,-24 237,-30 231,-36 225,-36"/>
<text text-anchor="middle" x="210" y="-15.5" font-family="sans" font-size="10.00">all</text>
</g>
<!-- 1 -->
<g id="node2" class="node">
<title>1</title>
<path fill="none" stroke="#a7d856" stroke-width="2" d="M78,-180C78,-180 12,-180 12,-180 6,-180 0,-174 0,-168 0,-168 0,-156 0,-156 0,-150 6,-144 12,-144 12,-144 78,-144 78,-144 84,-144 90,-150 90,-156 90,-156 90,-168 90,-168 90,-174 84,-180 78,-180"/>
<text text-anchor="middle" x="45" y="-159.5" font-family="sans" font-size="10.00">diffexp_qc_plots</text>
</g>
<!-- 1&#45;&gt;0 -->
<g id="edge2" class="edge">
<title>1&#45;&gt;0</title>
<path fill="none" stroke="grey" stroke-width="2" d="M42.17,-143.88C39.94,-124.3 39.53,-92.32 56,-72 84.36,-37.01 137.04,-25.05 172.81,-21"/>
<polygon fill="grey" stroke="grey" stroke-width="2" points="173.25,-24.47 182.86,-20.02 172.57,-17.5 173.25,-24.47"/>
</g>
<!-- 2 -->
<g id="node3" class="node">
<title>2</title>
<path fill="none" stroke="#56d8b9" stroke-width="2" d="M193,-252C193,-252 149,-252 149,-252 143,-252 137,-246 137,-240 137,-240 137,-228 137,-228 137,-222 143,-216 149,-216 149,-216 193,-216 193,-216 199,-216 205,-222 205,-228 205,-228 205,-240 205,-240 205,-246 199,-252 193,-252"/>
<text text-anchor="middle" x="171" y="-231.5" font-family="sans" font-size="10.00">count_eset</text>
</g>
<!-- 2&#45;&gt;1 -->
<g id="edge6" class="edge">
<title>2&#45;&gt;1</title>
<path fill="none" stroke="grey" stroke-width="2" d="M140.18,-215.88C123.55,-206.64 102.84,-195.13 84.98,-185.21"/>
<polygon fill="grey" stroke="grey" stroke-width="2" points="86.38,-181.99 75.94,-180.19 82.98,-188.11 86.38,-181.99"/>
</g>
<!-- 15 -->
<g id="node16" class="node">
<title>15</title>
<path fill="none" stroke="#56c9d8" stroke-width="2" d="M239.5,-180C239.5,-180 180.5,-180 180.5,-180 174.5,-180 168.5,-174 168.5,-168 168.5,-168 168.5,-156 168.5,-156 168.5,-150 174.5,-144 180.5,-144 180.5,-144 239.5,-144 239.5,-144 245.5,-144 251.5,-150 251.5,-156 251.5,-156 251.5,-168 251.5,-168 251.5,-174 245.5,-180 239.5,-180"/>
<text text-anchor="middle" x="210" y="-159.5" font-family="sans" font-size="10.00">diffexp_results</text>
</g>
<!-- 2&#45;&gt;15 -->
<g id="edge25" class="edge">
<title>2&#45;&gt;15</title>
<path fill="none" stroke="grey" stroke-width="2" d="M180.64,-215.7C185.13,-207.64 190.56,-197.89 195.52,-188.98"/>
<polygon fill="grey" stroke="grey" stroke-width="2" points="198.66,-190.54 200.47,-180.1 192.55,-187.14 198.66,-190.54"/>
</g>
<!-- 16 -->
<g id="node17" class="node">
<title>16</title>
<path fill="none" stroke="#61d856" stroke-width="2" d="M141,-108C141,-108 77,-108 77,-108 71,-108 65,-102 65,-96 65,-96 65,-84 65,-84 65,-78 71,-72 77,-72 77,-72 141,-72 141,-72 147,-72 153,-78 153,-84 153,-84 153,-96 153,-96 153,-102 147,-108 141,-108"/>
<text text-anchor="middle" x="109" y="-87.5" font-family="sans" font-size="10.00">diffexp_volcano</text>
</g>
<!-- 2&#45;&gt;16 -->
<g id="edge27" class="edge">
<title>2&#45;&gt;16</title>
<path fill="none" stroke="grey" stroke-width="2" d="M163.52,-215.87C152.86,-191.46 133.2,-146.43 120.63,-117.64"/>
<polygon fill="grey" stroke="grey" stroke-width="2" points="123.71,-115.95 116.51,-108.19 117.3,-118.75 123.71,-115.95"/>
</g>
<!-- 18 -->
<g id="node19" class="node">
<title>18</title>
<path fill="none" stroke="#d88556" stroke-width="2" d="M348.5,-180C348.5,-180 305.5,-180 305.5,-180 299.5,-180 293.5,-174 293.5,-168 293.5,-168 293.5,-156 293.5,-156 293.5,-150 299.5,-144 305.5,-144 305.5,-144 348.5,-144 348.5,-144 354.5,-144 360.5,-150 360.5,-156 360.5,-156 360.5,-168 360.5,-168 360.5,-174 354.5,-180 348.5,-180"/>
<text text-anchor="middle" x="327" y="-159.5" font-family="sans" font-size="10.00">norm_eset</text>
</g>
<!-- 2&#45;&gt;18 -->
<g id="edge30" class="edge">
<title>2&#45;&gt;18</title>
<path fill="none" stroke="grey" stroke-width="2" d="M205.23,-217.64C228.46,-207.22 259.33,-193.36 284.18,-182.21"/>
<polygon fill="grey" stroke="grey" stroke-width="2" points="285.69,-185.37 293.38,-178.09 282.82,-178.99 285.69,-185.37"/>
</g>
<!-- 3 -->
<g id="node4" class="node">
<title>3</title>
<path fill="none" stroke="#566bd8" stroke-width="2" d="M255,-324C255,-324 179,-324 179,-324 173,-324 167,-318 167,-312 167,-312 167,-300 167,-300 167,-294 173,-288 179,-288 179,-288 255,-288 255,-288 261,-288 267,-294 267,-300 267,-300 267,-312 267,-312 267,-318 261,-324 255,-324"/>
<text text-anchor="middle" x="217" y="-303.5" font-family="sans" font-size="10.00">star_count_matrix</text>
</g>
<!-- 3&#45;&gt;2 -->
<g id="edge7" class="edge">
<title>3&#45;&gt;2</title>
<path fill="none" stroke="grey" stroke-width="2" d="M205.63,-287.7C200.28,-279.56 193.8,-269.69 187.89,-260.7"/>
<polygon fill="grey" stroke="grey" stroke-width="2" points="190.66,-258.54 182.24,-252.1 184.81,-262.38 190.66,-258.54"/>
</g>
<!-- 4 -->
<g id="node5" class="node">
<title>4</title>
<path fill="none" stroke="#8fd856" stroke-width="2" d="M343,-468C343,-468 275,-468 275,-468 269,-468 263,-462 263,-456 263,-456 263,-444 263,-444 263,-438 269,-432 275,-432 275,-432 343,-432 343,-432 349,-432 355,-438 355,-444 355,-444 355,-456 355,-456 355,-462 349,-468 343,-468"/>
<text text-anchor="middle" x="309" y="-447.5" font-family="sans" font-size="10.00">star_align_pass2</text>
</g>
<!-- 4&#45;&gt;3 -->
<g id="edge9" class="edge">
<title>4&#45;&gt;3</title>
<path fill="none" stroke="grey" stroke-width="2" d="M308.91,-431.89C308.04,-412.88 304.3,-381.99 290,-360 282.17,-347.96 270.58,-337.74 258.92,-329.58"/>
<polygon fill="grey" stroke="grey" stroke-width="2" points="260.75,-326.6 250.48,-324.01 256.9,-332.44 260.75,-326.6"/>
</g>
<!-- 12 -->
<g id="node13" class="node">
<title>12</title>
<path fill="none" stroke="#5682d8" stroke-width="2" d="M269,-396C269,-396 165,-396 165,-396 159,-396 153,-390 153,-384 153,-384 153,-372 153,-372 153,-366 159,-360 165,-360 165,-360 269,-360 269,-360 275,-360 281,-366 281,-372 281,-372 281,-384 281,-384 281,-390 275,-396 269,-396"/>
<text text-anchor="middle" x="217" y="-375.5" font-family="sans" font-size="10.00">rseqc_infer_experiment</text>
</g>
<!-- 4&#45;&gt;12 -->
<g id="edge22" class="edge">
<title>4&#45;&gt;12</title>
<path fill="none" stroke="grey" stroke-width="2" d="M286.26,-431.7C274.56,-422.8 260.14,-411.82 247.49,-402.2"/>
<polygon fill="grey" stroke="grey" stroke-width="2" points="249.56,-399.37 239.48,-396.1 245.32,-404.94 249.56,-399.37"/>
</g>
<!-- 5 -->
<g id="node6" class="node">
<title>5</title>
<path fill="none" stroke="#d89c56" stroke-width="2" d="M334,-684C334,-684 294,-684 294,-684 288,-684 282,-678 282,-672 282,-672 282,-660 282,-660 282,-654 288,-648 294,-648 294,-648 334,-648 334,-648 340,-648 346,-654 346,-660 346,-660 346,-672 346,-672 346,-678 340,-684 334,-684"/>
<text text-anchor="middle" x="314" y="-663.5" font-family="sans" font-size="10.00">star_index</text>
</g>
<!-- 5&#45;&gt;4 -->
<g id="edge11" class="edge">
<title>5&#45;&gt;4</title>
<path fill="none" stroke="grey" stroke-width="2" d="M313.6,-647.85C312.73,-610.83 310.69,-523.18 309.64,-478.39"/>
<polygon fill="grey" stroke="grey" stroke-width="2" points="313.14,-478.15 309.4,-468.23 306.14,-478.31 313.14,-478.15"/>
</g>
<!-- 11 -->
<g id="node12" class="node">
<title>11</title>
<path fill="none" stroke="#bed856" stroke-width="2" d="M420,-612C420,-612 352,-612 352,-612 346,-612 340,-606 340,-600 340,-600 340,-588 340,-588 340,-582 346,-576 352,-576 352,-576 420,-576 420,-576 426,-576 432,-582 432,-588 432,-588 432,-600 432,-600 432,-606 426,-612 420,-612"/>
<text text-anchor="middle" x="386" y="-591.5" font-family="sans" font-size="10.00">star_align_pass1</text>
</g>
<!-- 5&#45;&gt;11 -->
<g id="edge18" class="edge">
<title>5&#45;&gt;11</title>
<path fill="none" stroke="grey" stroke-width="2" d="M331.8,-647.7C340.6,-639.14 351.38,-628.66 361,-619.3"/>
<polygon fill="grey" stroke="grey" stroke-width="2" points="363.68,-621.58 368.41,-612.1 358.8,-616.57 363.68,-621.58"/>
</g>
<!-- 6 -->
<g id="node7" class="node">
<title>6</title>
<path fill="none" stroke="#78d856" stroke-width="2" d="M361,-756C361,-756 263,-756 263,-756 257,-756 251,-750 251,-744 251,-744 251,-732 251,-732 251,-726 257,-720 263,-720 263,-720 361,-720 361,-720 367,-720 373,-726 373,-732 373,-732 373,-744 373,-744 373,-750 367,-756 361,-756"/>
<text text-anchor="middle" x="312" y="-735.5" font-family="sans" font-size="10.00">gencode_genome_seq</text>
</g>
<!-- 6&#45;&gt;5 -->
<g id="edge15" class="edge">
<title>6&#45;&gt;5</title>
<path fill="none" stroke="grey" stroke-width="2" d="M312.49,-719.7C312.71,-711.98 312.98,-702.71 313.23,-694.11"/>
<polygon fill="grey" stroke="grey" stroke-width="2" points="316.72,-694.2 313.51,-684.1 309.73,-694 316.72,-694.2"/>
</g>
<!-- 7 -->
<g id="node8" class="node">
<title>7</title>
<path fill="none" stroke="#56d8a2" stroke-width="2" d="M252,-684C252,-684 144,-684 144,-684 138,-684 132,-678 132,-672 132,-672 132,-660 132,-660 132,-654 138,-648 144,-648 144,-648 252,-648 252,-648 258,-648 264,-654 264,-660 264,-660 264,-672 264,-672 264,-678 258,-684 252,-684"/>
<text text-anchor="middle" x="198" y="-663.5" font-family="sans" font-size="10.00">gencode_genome_annot</text>
</g>
<!-- 7&#45;&gt;4 -->
<g id="edge12" class="edge">
<title>7&#45;&gt;4</title>
<path fill="none" stroke="grey" stroke-width="2" d="M206.9,-647.85C226.26,-610.52 272.33,-521.69 295.38,-477.26"/>
<polygon fill="grey" stroke="grey" stroke-width="2" points="298.56,-478.72 300.06,-468.23 292.35,-475.5 298.56,-478.72"/>
</g>
<!-- 7&#45;&gt;11 -->
<g id="edge19" class="edge">
<title>7&#45;&gt;11</title>
<path fill="none" stroke="grey" stroke-width="2" d="M243.99,-647.88C270.15,-638.14 303.09,-625.87 330.65,-615.61"/>
<polygon fill="grey" stroke="grey" stroke-width="2" points="332.01,-618.84 340.16,-612.07 329.57,-612.28 332.01,-618.84"/>
</g>
<!-- 13 -->
<g id="node14" class="node">
<title>13</title>
<path fill="none" stroke="#56b1d8" stroke-width="2" d="M231,-540C231,-540 165,-540 165,-540 159,-540 153,-534 153,-528 153,-528 153,-516 153,-516 153,-510 159,-504 165,-504 165,-504 231,-504 231,-504 237,-504 243,-510 243,-516 243,-516 243,-528 243,-528 243,-534 237,-540 231,-540"/>
<text text-anchor="middle" x="198" y="-519.5" font-family="sans" font-size="10.00">gffutils_gtf2bed</text>
</g>
<!-- 7&#45;&gt;13 -->
<g id="edge23" class="edge">
<title>7&#45;&gt;13</title>
<path fill="none" stroke="grey" stroke-width="2" d="M198,-647.87C198,-623.67 198,-579.21 198,-550.39"/>
<polygon fill="grey" stroke="grey" stroke-width="2" points="201.5,-550.19 198,-540.19 194.5,-550.19 201.5,-550.19"/>
</g>
<!-- 14 -->
<g id="node15" class="node">
<title>14</title>
<path fill="none" stroke="#56d87b" stroke-width="2" d="M158,-468C158,-468 92,-468 92,-468 86,-468 80,-462 80,-456 80,-456 80,-444 80,-444 80,-438 86,-432 92,-432 92,-432 158,-432 158,-432 164,-432 170,-438 170,-444 170,-444 170,-456 170,-456 170,-462 164,-468 158,-468"/>
<text text-anchor="middle" x="125" y="-447.5" font-family="sans" font-size="10.00">gtf_gene_annot</text>
</g>
<!-- 7&#45;&gt;14 -->
<g id="edge24" class="edge">
<title>7&#45;&gt;14</title>
<path fill="none" stroke="grey" stroke-width="2" d="M189.18,-647.62C177.43,-623.85 156.65,-579.63 144,-540 137.52,-519.71 132.6,-496.12 129.39,-478.32"/>
<polygon fill="grey" stroke="grey" stroke-width="2" points="132.81,-477.58 127.65,-468.32 125.92,-478.78 132.81,-477.58"/>
</g>
<!-- 8 -->
<g id="node9" class="node">
<title>8</title>
<path fill="none" stroke="#56d863" stroke-width="2" d="M523.5,-684C523.5,-684 414.5,-684 414.5,-684 408.5,-684 402.5,-678 402.5,-672 402.5,-672 402.5,-660 402.5,-660 402.5,-654 408.5,-648 414.5,-648 414.5,-648 523.5,-648 523.5,-648 529.5,-648 535.5,-654 535.5,-660 535.5,-660 535.5,-672 535.5,-672 535.5,-678 529.5,-684 523.5,-684"/>
<text text-anchor="middle" x="469" y="-663.5" font-family="sans" font-size="10.00">bbmap_max_read_length</text>
</g>
<!-- 8&#45;&gt;4 -->
<g id="edge13" class="edge">
<title>8&#45;&gt;4</title>
<path fill="none" stroke="grey" stroke-width="2" d="M472.28,-647.82C477.35,-615.84 483.32,-546.55 450,-504 429.57,-477.92 394.84,-464.67 364.95,-457.94"/>
<polygon fill="grey" stroke="grey" stroke-width="2" points="365.53,-454.49 355.03,-455.9 364.12,-461.34 365.53,-454.49"/>
</g>
<!-- 8&#45;&gt;11 -->
<g id="edge20" class="edge">
<title>8&#45;&gt;11</title>
<path fill="none" stroke="grey" stroke-width="2" d="M448.48,-647.7C438.13,-638.97 425.41,-628.24 414.16,-618.75"/>
<polygon fill="grey" stroke="grey" stroke-width="2" points="416.18,-615.88 406.28,-612.1 411.67,-621.23 416.18,-615.88"/>
</g>
<!-- 9 -->
<g id="node10" class="node">
<title>9</title>
<path fill="none" stroke="#56d8d0" stroke-width="2" d="M539,-756C539,-756 403,-756 403,-756 397,-756 391,-750 391,-744 391,-744 391,-732 391,-732 391,-726 397,-720 403,-720 403,-720 539,-720 539,-720 545,-720 551,-726 551,-732 551,-732 551,-744 551,-744 551,-750 545,-756 539,-756"/>
<text text-anchor="middle" x="471" y="-735.5" font-family="sans" font-size="10.00">bbmap_read_length_histogram</text>
</g>
<!-- 9&#45;&gt;8 -->
<g id="edge16" class="edge">
<title>9&#45;&gt;8</title>
<path fill="none" stroke="grey" stroke-width="2" d="M470.51,-719.7C470.29,-711.98 470.02,-702.71 469.77,-694.11"/>
<polygon fill="grey" stroke="grey" stroke-width="2" points="473.27,-694 469.49,-684.1 466.28,-694.2 473.27,-694"/>
</g>
<!-- 10 -->
<g id="node11" class="node">
<title>10</title>
<path fill="none" stroke="#d86e56" stroke-width="2" d="M429,-540C429,-540 349,-540 349,-540 343,-540 337,-534 337,-528 337,-528 337,-516 337,-516 337,-510 343,-504 349,-504 349,-504 429,-504 429,-504 435,-504 441,-510 441,-516 441,-516 441,-528 441,-528 441,-534 435,-540 429,-540"/>
<text text-anchor="middle" x="389" y="-519.5" font-family="sans" font-size="10.00">star_filter_pass1_sj</text>
</g>
<!-- 10&#45;&gt;4 -->
<g id="edge14" class="edge">
<title>10&#45;&gt;4</title>
<path fill="none" stroke="grey" stroke-width="2" d="M369.22,-503.7C359.25,-494.97 346.99,-484.24 336.14,-474.75"/>
<polygon fill="grey" stroke="grey" stroke-width="2" points="338.38,-472.06 328.55,-468.1 333.77,-477.32 338.38,-472.06"/>
</g>
<!-- 11&#45;&gt;10 -->
<g id="edge17" class="edge">
<title>11&#45;&gt;10</title>
<path fill="none" stroke="grey" stroke-width="2" d="M386.74,-575.7C387.07,-567.98 387.47,-558.71 387.84,-550.11"/>
<polygon fill="grey" stroke="grey" stroke-width="2" points="391.34,-550.25 388.27,-540.1 384.34,-549.95 391.34,-550.25"/>
</g>
<!-- 12&#45;&gt;3 -->
<g id="edge10" class="edge">
<title>12&#45;&gt;3</title>
<path fill="none" stroke="grey" stroke-width="2" d="M217,-359.7C217,-351.98 217,-342.71 217,-334.11"/>
<polygon fill="grey" stroke="grey" stroke-width="2" points="220.5,-334.1 217,-324.1 213.5,-334.1 220.5,-334.1"/>
</g>
<!-- 13&#45;&gt;12 -->
<g id="edge21" class="edge">
<title>13&#45;&gt;12</title>
<path fill="none" stroke="grey" stroke-width="2" d="M200.29,-503.87C203.53,-479.67 209.48,-435.21 213.33,-406.39"/>
<polygon fill="grey" stroke="grey" stroke-width="2" points="216.84,-406.57 214.7,-396.19 209.9,-405.64 216.84,-406.57"/>
</g>
<!-- 14&#45;&gt;2 -->
<g id="edge8" class="edge">
<title>14&#45;&gt;2</title>
<path fill="none" stroke="grey" stroke-width="2" d="M128.35,-431.56C134.08,-401.97 146.29,-340.05 158,-288 159.9,-279.55 162.1,-270.38 164.15,-262.08"/>
<polygon fill="grey" stroke="grey" stroke-width="2" points="167.6,-262.7 166.62,-252.15 160.81,-261.01 167.6,-262.7"/>
</g>
<!-- 15&#45;&gt;0 -->
<g id="edge1" class="edge">
<title>15&#45;&gt;0</title>
<path fill="none" stroke="grey" stroke-width="2" d="M231.27,-143.7C241.11,-134.31 251.76,-121.8 257,-108 262.68,-93.04 262.68,-86.96 257,-72 253.03,-61.54 245.95,-51.83 238.47,-43.65"/>
<polygon fill="grey" stroke="grey" stroke-width="2" points="240.77,-40.99 231.27,-36.3 235.77,-45.89 240.77,-40.99"/>
</g>
<!-- 15&#45;&gt;16 -->
<g id="edge26" class="edge">
<title>15&#45;&gt;16</title>
<path fill="none" stroke="grey" stroke-width="2" d="M185.29,-143.88C172.33,-134.89 156.27,-123.76 142.23,-114.03"/>
<polygon fill="grey" stroke="grey" stroke-width="2" points="144.02,-111.01 133.8,-108.19 140.03,-116.76 144.02,-111.01"/>
</g>
<!-- 17 -->
<g id="node18" class="node">
<title>17</title>
<path fill="none" stroke="#d6d856" stroke-width="2" d="M387,-108C387,-108 317,-108 317,-108 311,-108 305,-102 305,-96 305,-96 305,-84 305,-84 305,-78 311,-72 317,-72 317,-72 387,-72 387,-72 393,-72 399,-78 399,-84 399,-84 399,-96 399,-96 399,-102 393,-108 387,-108"/>
<text text-anchor="middle" x="352" y="-87.5" font-family="sans" font-size="10.00">diffexp_heatmap</text>
</g>
<!-- 15&#45;&gt;17 -->
<g id="edge28" class="edge">
<title>15&#45;&gt;17</title>
<path fill="none" stroke="grey" stroke-width="2" d="M244.74,-143.88C263.82,-134.47 287.68,-122.71 308.05,-112.67"/>
<polygon fill="grey" stroke="grey" stroke-width="2" points="309.71,-115.75 317.13,-108.19 306.61,-109.47 309.71,-115.75"/>
</g>
<!-- 19 -->
<g id="node20" class="node">
<title>19</title>
<path fill="none" stroke="#d8b456" stroke-width="2" d="M236.5,-108C236.5,-108 183.5,-108 183.5,-108 177.5,-108 171.5,-102 171.5,-96 171.5,-96 171.5,-84 171.5,-84 171.5,-78 177.5,-72 183.5,-72 183.5,-72 236.5,-72 236.5,-72 242.5,-72 248.5,-78 248.5,-84 248.5,-84 248.5,-96 248.5,-96 248.5,-102 242.5,-108 236.5,-108"/>
<text text-anchor="middle" x="210" y="-87.5" font-family="sans" font-size="10.00">gsea_msigdb</text>
</g>
<!-- 15&#45;&gt;19 -->
<g id="edge31" class="edge">
<title>15&#45;&gt;19</title>
<path fill="none" stroke="grey" stroke-width="2" d="M210,-143.7C210,-135.98 210,-126.71 210,-118.11"/>
<polygon fill="grey" stroke="grey" stroke-width="2" points="213.5,-118.1 210,-108.1 206.5,-118.1 213.5,-118.1"/>
</g>
<!-- 16&#45;&gt;0 -->
<g id="edge3" class="edge">
<title>16&#45;&gt;0</title>
<path fill="none" stroke="grey" stroke-width="2" d="M133.71,-71.88C146.67,-62.89 162.73,-51.76 176.77,-42.03"/>
<polygon fill="grey" stroke="grey" stroke-width="2" points="178.97,-44.76 185.2,-36.19 174.98,-39.01 178.97,-44.76"/>
</g>
<!-- 17&#45;&gt;0 -->
<g id="edge5" class="edge">
<title>17&#45;&gt;0</title>
<path fill="none" stroke="grey" stroke-width="2" d="M317.26,-71.88C295.81,-61.3 268.31,-47.74 246.53,-37.01"/>
<polygon fill="grey" stroke="grey" stroke-width="2" points="247.79,-33.73 237.27,-32.44 244.69,-40 247.79,-33.73"/>
</g>
<!-- 18&#45;&gt;17 -->
<g id="edge29" class="edge">
<title>18&#45;&gt;17</title>
<path fill="none" stroke="grey" stroke-width="2" d="M333.18,-143.7C336,-135.81 339.39,-126.3 342.52,-117.55"/>
<polygon fill="grey" stroke="grey" stroke-width="2" points="345.82,-118.7 345.89,-108.1 339.23,-116.34 345.82,-118.7"/>
</g>
<!-- 19&#45;&gt;0 -->
<g id="edge4" class="edge">
<title>19&#45;&gt;0</title>
<path fill="none" stroke="grey" stroke-width="2" d="M210,-71.7C210,-63.98 210,-54.71 210,-46.11"/>
<polygon fill="grey" stroke="grey" stroke-width="2" points="213.5,-46.1 210,-36.1 206.5,-46.1 213.5,-46.1"/>
</g>
</g>
</svg>
