<?xml version="1.0" encoding="UTF-8" standalone="no"?>
<!DOCTYPE svg PUBLIC "-//W3C//DTD SVG 1.1//EN"
 "http://www.w3.org/Graphics/SVG/1.1/DTD/svg11.dtd">
<!-- Generated by graphviz version 5.0.0 (0)
 -->
<!-- Title: snakemake_dag Pages: 1 -->
<svg width="548pt" height="836pt"
 viewBox="0.00 0.00 548.00 836.00" xmlns="http://www.w3.org/2000/svg" xmlns:xlink="http://www.w3.org/1999/xlink">
<g id="graph0" class="graph" transform="scale(1 1) rotate(0) translate(4 832)">
<title>snakemake_dag</title>
<polygon fill="white" stroke="transparent" points="-4,4 -4,-832 544,-832 544,4 -4,4"/>
<!-- 0 -->
<g id="node1" class="node">
<title>0</title>
<path fill="none" stroke="#56d8a9" stroke-width="2" d="M179,-36C179,-36 149,-36 149,-36 143,-36 137,-30 137,-24 137,-24 137,-12 137,-12 137,-6 143,0 149,0 149,0 179,0 179,0 185,0 191,-6 191,-12 191,-12 191,-24 191,-24 191,-30 185,-36 179,-36"/>
<text text-anchor="middle" x="164" y="-15.5" font-family="sans" font-size="10.00">all</text>
</g>
<!-- 1 -->
<g id="node2" class="node">
<title>1</title>
<path fill="none" stroke="#569ad8" stroke-width="2" d="M78,-108C78,-108 12,-108 12,-108 6,-108 0,-102 0,-96 0,-96 0,-84 0,-84 0,-78 6,-72 12,-72 12,-72 78,-72 78,-72 84,-72 90,-78 90,-84 90,-84 90,-96 90,-96 90,-102 84,-108 78,-108"/>
<text text-anchor="middle" x="45" y="-87.5" font-family="sans" font-size="10.00">diffexp_qc_plots</text>
</g>
<!-- 1&#45;&gt;0 -->
<g id="edge2" class="edge">
<title>1&#45;&gt;0</title>
<path fill="none" stroke="grey" stroke-width="2" d="M74.11,-71.88C90.4,-62.29 110.84,-50.27 128.12,-40.11"/>
<polygon fill="grey" stroke="grey" stroke-width="2" points="129.98,-43.07 136.82,-34.99 126.43,-37.04 129.98,-43.07"/>
</g>
<!-- 2 -->
<g id="node3" class="node">
<title>2</title>
<path fill="none" stroke="#56d8c1" stroke-width="2" d="M182,-324C182,-324 138,-324 138,-324 132,-324 126,-318 126,-312 126,-312 126,-300 126,-300 126,-294 132,-288 138,-288 138,-288 182,-288 182,-288 188,-288 194,-294 194,-300 194,-300 194,-312 194,-312 194,-318 188,-324 182,-324"/>
<text text-anchor="middle" x="160" y="-303.5" font-family="sans" font-size="10.00">count_eset</text>
</g>
<!-- 2&#45;&gt;1 -->
<g id="edge5" class="edge">
<title>2&#45;&gt;1</title>
<path fill="none" stroke="grey" stroke-width="2" d="M140.53,-287.7C116.78,-265.36 77.41,-224.09 58,-180 49.41,-160.5 46.29,-136.5 45.24,-118.34"/>
<polygon fill="grey" stroke="grey" stroke-width="2" points="48.73,-117.99 44.83,-108.14 41.73,-118.27 48.73,-117.99"/>
</g>
<!-- 15 -->
<g id="node16" class="node">
<title>15</title>
<path fill="none" stroke="#56c1d8" stroke-width="2" d="M143,-180C143,-180 79,-180 79,-180 73,-180 67,-174 67,-168 67,-168 67,-156 67,-156 67,-150 73,-144 79,-144 79,-144 143,-144 143,-144 149,-144 155,-150 155,-156 155,-156 155,-168 155,-168 155,-174 149,-180 143,-180"/>
<text text-anchor="middle" x="111" y="-159.5" font-family="sans" font-size="10.00">diffexp_volcano</text>
</g>
<!-- 2&#45;&gt;15 -->
<g id="edge25" class="edge">
<title>2&#45;&gt;15</title>
<path fill="none" stroke="grey" stroke-width="2" d="M154.09,-287.87C145.7,-263.56 130.26,-218.82 120.32,-190.01"/>
<polygon fill="grey" stroke="grey" stroke-width="2" points="123.5,-188.5 116.93,-180.19 116.88,-190.78 123.5,-188.5"/>
</g>
<!-- 16 -->
<g id="node17" class="node">
<title>16</title>
<path fill="none" stroke="#d85656" stroke-width="2" d="M232.5,-252C232.5,-252 173.5,-252 173.5,-252 167.5,-252 161.5,-246 161.5,-240 161.5,-240 161.5,-228 161.5,-228 161.5,-222 167.5,-216 173.5,-216 173.5,-216 232.5,-216 232.5,-216 238.5,-216 244.5,-222 244.5,-228 244.5,-228 244.5,-240 244.5,-240 244.5,-246 238.5,-252 232.5,-252"/>
<text text-anchor="middle" x="203" y="-231.5" font-family="sans" font-size="10.00">diffexp_results</text>
</g>
<!-- 2&#45;&gt;16 -->
<g id="edge26" class="edge">
<title>2&#45;&gt;16</title>
<path fill="none" stroke="grey" stroke-width="2" d="M170.63,-287.7C175.63,-279.56 181.69,-269.69 187.21,-260.7"/>
<polygon fill="grey" stroke="grey" stroke-width="2" points="190.24,-262.46 192.49,-252.1 184.28,-258.79 190.24,-262.46"/>
</g>
<!-- 18 -->
<g id="node19" class="node">
<title>18</title>
<path fill="none" stroke="#c6d856" stroke-width="2" d="M330.5,-252C330.5,-252 287.5,-252 287.5,-252 281.5,-252 275.5,-246 275.5,-240 275.5,-240 275.5,-228 275.5,-228 275.5,-222 281.5,-216 287.5,-216 287.5,-216 330.5,-216 330.5,-216 336.5,-216 342.5,-222 342.5,-228 342.5,-228 342.5,-240 342.5,-240 342.5,-246 336.5,-252 330.5,-252"/>
<text text-anchor="middle" x="309" y="-231.5" font-family="sans" font-size="10.00">norm_eset</text>
</g>
<!-- 2&#45;&gt;18 -->
<g id="edge29" class="edge">
<title>2&#45;&gt;18</title>
<path fill="none" stroke="grey" stroke-width="2" d="M194.18,-288.94C215.63,-278.87 243.45,-265.79 266.34,-255.04"/>
<polygon fill="grey" stroke="grey" stroke-width="2" points="267.93,-258.16 275.49,-250.74 264.95,-251.83 267.93,-258.16"/>
</g>
<!-- 3 -->
<g id="node4" class="node">
<title>3</title>
<path fill="none" stroke="#59d856" stroke-width="2" d="M244,-396C244,-396 168,-396 168,-396 162,-396 156,-390 156,-384 156,-384 156,-372 156,-372 156,-366 162,-360 168,-360 168,-360 244,-360 244,-360 250,-360 256,-366 256,-372 256,-372 256,-384 256,-384 256,-390 250,-396 244,-396"/>
<text text-anchor="middle" x="206" y="-375.5" font-family="sans" font-size="10.00">star_count_matrix</text>
</g>
<!-- 3&#45;&gt;2 -->
<g id="edge7" class="edge">
<title>3&#45;&gt;2</title>
<path fill="none" stroke="grey" stroke-width="2" d="M194.63,-359.7C189.28,-351.56 182.8,-341.69 176.89,-332.7"/>
<polygon fill="grey" stroke="grey" stroke-width="2" points="179.66,-330.54 171.24,-324.1 173.81,-334.38 179.66,-330.54"/>
</g>
<!-- 4 -->
<g id="node5" class="node">
<title>4</title>
<path fill="none" stroke="#56d86b" stroke-width="2" d="M332,-540C332,-540 264,-540 264,-540 258,-540 252,-534 252,-528 252,-528 252,-516 252,-516 252,-510 258,-504 264,-504 264,-504 332,-504 332,-504 338,-504 344,-510 344,-516 344,-516 344,-528 344,-528 344,-534 338,-540 332,-540"/>
<text text-anchor="middle" x="298" y="-519.5" font-family="sans" font-size="10.00">star_align_pass2</text>
</g>
<!-- 4&#45;&gt;3 -->
<g id="edge9" class="edge">
<title>4&#45;&gt;3</title>
<path fill="none" stroke="grey" stroke-width="2" d="M297.91,-503.89C297.04,-484.88 293.3,-453.99 279,-432 271.17,-419.96 259.58,-409.74 247.92,-401.58"/>
<polygon fill="grey" stroke="grey" stroke-width="2" points="249.75,-398.6 239.48,-396.01 245.9,-404.44 249.75,-398.6"/>
</g>
<!-- 12 -->
<g id="node13" class="node">
<title>12</title>
<path fill="none" stroke="#56a9d8" stroke-width="2" d="M258,-468C258,-468 154,-468 154,-468 148,-468 142,-462 142,-456 142,-456 142,-444 142,-444 142,-438 148,-432 154,-432 154,-432 258,-432 258,-432 264,-432 270,-438 270,-444 270,-444 270,-456 270,-456 270,-462 264,-468 258,-468"/>
<text text-anchor="middle" x="206" y="-447.5" font-family="sans" font-size="10.00">rseqc_infer_experiment</text>
</g>
<!-- 4&#45;&gt;12 -->
<g id="edge21" class="edge">
<title>4&#45;&gt;12</title>
<path fill="none" stroke="grey" stroke-width="2" d="M275.26,-503.7C263.56,-494.8 249.14,-483.82 236.49,-474.2"/>
<polygon fill="grey" stroke="grey" stroke-width="2" points="238.56,-471.37 228.48,-468.1 234.32,-476.94 238.56,-471.37"/>
</g>
<!-- 5 -->
<g id="node6" class="node">
<title>5</title>
<path fill="none" stroke="#56d8d8" stroke-width="2" d="M323,-756C323,-756 283,-756 283,-756 277,-756 271,-750 271,-744 271,-744 271,-732 271,-732 271,-726 277,-720 283,-720 283,-720 323,-720 323,-720 329,-720 335,-726 335,-732 335,-732 335,-744 335,-744 335,-750 329,-756 323,-756"/>
<text text-anchor="middle" x="303" y="-735.5" font-family="sans" font-size="10.00">star_index</text>
</g>
<!-- 5&#45;&gt;4 -->
<g id="edge10" class="edge">
<title>5&#45;&gt;4</title>
<path fill="none" stroke="grey" stroke-width="2" d="M302.6,-719.85C301.73,-682.83 299.69,-595.18 298.64,-550.39"/>
<polygon fill="grey" stroke="grey" stroke-width="2" points="302.14,-550.15 298.4,-540.23 295.14,-550.31 302.14,-550.15"/>
</g>
<!-- 11 -->
<g id="node12" class="node">
<title>11</title>
<path fill="none" stroke="#d6d856" stroke-width="2" d="M409,-684C409,-684 341,-684 341,-684 335,-684 329,-678 329,-672 329,-672 329,-660 329,-660 329,-654 335,-648 341,-648 341,-648 409,-648 409,-648 415,-648 421,-654 421,-660 421,-660 421,-672 421,-672 421,-678 415,-684 409,-684"/>
<text text-anchor="middle" x="375" y="-663.5" font-family="sans" font-size="10.00">star_align_pass1</text>
</g>
<!-- 5&#45;&gt;11 -->
<g id="edge17" class="edge">
<title>5&#45;&gt;11</title>
<path fill="none" stroke="grey" stroke-width="2" d="M320.8,-719.7C329.6,-711.14 340.38,-700.66 350,-691.3"/>
<polygon fill="grey" stroke="grey" stroke-width="2" points="352.68,-693.58 357.41,-684.1 347.8,-688.57 352.68,-693.58"/>
</g>
<!-- 6 -->
<g id="node7" class="node">
<title>6</title>
<path fill="none" stroke="#56d882" stroke-width="2" d="M350,-828C350,-828 252,-828 252,-828 246,-828 240,-822 240,-816 240,-816 240,-804 240,-804 240,-798 246,-792 252,-792 252,-792 350,-792 350,-792 356,-792 362,-798 362,-804 362,-804 362,-816 362,-816 362,-822 356,-828 350,-828"/>
<text text-anchor="middle" x="301" y="-807.5" font-family="sans" font-size="10.00">gencode_genome_seq</text>
</g>
<!-- 6&#45;&gt;5 -->
<g id="edge14" class="edge">
<title>6&#45;&gt;5</title>
<path fill="none" stroke="grey" stroke-width="2" d="M301.49,-791.7C301.71,-783.98 301.98,-774.71 302.23,-766.11"/>
<polygon fill="grey" stroke="grey" stroke-width="2" points="305.72,-766.2 302.51,-756.1 298.73,-766 305.72,-766.2"/>
</g>
<!-- 7 -->
<g id="node8" class="node">
<title>7</title>
<path fill="none" stroke="#d89556" stroke-width="2" d="M241,-756C241,-756 133,-756 133,-756 127,-756 121,-750 121,-744 121,-744 121,-732 121,-732 121,-726 127,-720 133,-720 133,-720 241,-720 241,-720 247,-720 253,-726 253,-732 253,-732 253,-744 253,-744 253,-750 247,-756 241,-756"/>
<text text-anchor="middle" x="187" y="-735.5" font-family="sans" font-size="10.00">gencode_genome_annot</text>
</g>
<!-- 7&#45;&gt;4 -->
<g id="edge11" class="edge">
<title>7&#45;&gt;4</title>
<path fill="none" stroke="grey" stroke-width="2" d="M195.9,-719.85C215.26,-682.52 261.33,-593.69 284.38,-549.26"/>
<polygon fill="grey" stroke="grey" stroke-width="2" points="287.56,-550.72 289.06,-540.23 281.35,-547.5 287.56,-550.72"/>
</g>
<!-- 7&#45;&gt;11 -->
<g id="edge18" class="edge">
<title>7&#45;&gt;11</title>
<path fill="none" stroke="grey" stroke-width="2" d="M232.99,-719.88C259.15,-710.14 292.09,-697.87 319.65,-687.61"/>
<polygon fill="grey" stroke="grey" stroke-width="2" points="321.01,-690.84 329.16,-684.07 318.57,-684.28 321.01,-690.84"/>
</g>
<!-- 13 -->
<g id="node14" class="node">
<title>13</title>
<path fill="none" stroke="#afd856" stroke-width="2" d="M220,-612C220,-612 154,-612 154,-612 148,-612 142,-606 142,-600 142,-600 142,-588 142,-588 142,-582 148,-576 154,-576 154,-576 220,-576 220,-576 226,-576 232,-582 232,-588 232,-588 232,-600 232,-600 232,-606 226,-612 220,-612"/>
<text text-anchor="middle" x="187" y="-591.5" font-family="sans" font-size="10.00">gffutils_gtf2bed</text>
</g>
<!-- 7&#45;&gt;13 -->
<g id="edge22" class="edge">
<title>7&#45;&gt;13</title>
<path fill="none" stroke="grey" stroke-width="2" d="M187,-719.87C187,-695.67 187,-651.21 187,-622.39"/>
<polygon fill="grey" stroke="grey" stroke-width="2" points="190.5,-622.19 187,-612.19 183.5,-622.19 190.5,-622.19"/>
</g>
<!-- 14 -->
<g id="node15" class="node">
<title>14</title>
<path fill="none" stroke="#d8ac56" stroke-width="2" d="M147,-540C147,-540 81,-540 81,-540 75,-540 69,-534 69,-528 69,-528 69,-516 69,-516 69,-510 75,-504 81,-504 81,-504 147,-504 147,-504 153,-504 159,-510 159,-516 159,-516 159,-528 159,-528 159,-534 153,-540 147,-540"/>
<text text-anchor="middle" x="114" y="-519.5" font-family="sans" font-size="10.00">gtf_gene_annot</text>
</g>
<!-- 7&#45;&gt;14 -->
<g id="edge23" class="edge">
<title>7&#45;&gt;14</title>
<path fill="none" stroke="grey" stroke-width="2" d="M178.18,-719.62C166.43,-695.85 145.65,-651.63 133,-612 126.52,-591.71 121.6,-568.12 118.39,-550.32"/>
<polygon fill="grey" stroke="grey" stroke-width="2" points="121.81,-549.58 116.65,-540.32 114.92,-550.78 121.81,-549.58"/>
</g>
<!-- 8 -->
<g id="node9" class="node">
<title>8</title>
<path fill="none" stroke="#d88556" stroke-width="2" d="M512.5,-756C512.5,-756 403.5,-756 403.5,-756 397.5,-756 391.5,-750 391.5,-744 391.5,-744 391.5,-732 391.5,-732 391.5,-726 397.5,-720 403.5,-720 403.5,-720 512.5,-720 512.5,-720 518.5,-720 524.5,-726 524.5,-732 524.5,-732 524.5,-744 524.5,-744 524.5,-750 518.5,-756 512.5,-756"/>
<text text-anchor="middle" x="458" y="-735.5" font-family="sans" font-size="10.00">bbmap_max_read_length</text>
</g>
<!-- 8&#45;&gt;4 -->
<g id="edge13" class="edge">
<title>8&#45;&gt;4</title>
<path fill="none" stroke="grey" stroke-width="2" d="M461.28,-719.82C466.35,-687.84 472.32,-618.55 439,-576 418.57,-549.92 383.84,-536.67 353.95,-529.94"/>
<polygon fill="grey" stroke="grey" stroke-width="2" points="354.53,-526.49 344.03,-527.9 353.12,-533.34 354.53,-526.49"/>
</g>
<!-- 8&#45;&gt;11 -->
<g id="edge19" class="edge">
<title>8&#45;&gt;11</title>
<path fill="none" stroke="grey" stroke-width="2" d="M437.48,-719.7C427.13,-710.97 414.41,-700.24 403.16,-690.75"/>
<polygon fill="grey" stroke="grey" stroke-width="2" points="405.18,-687.88 395.28,-684.1 400.67,-693.23 405.18,-687.88"/>
</g>
<!-- 9 -->
<g id="node10" class="node">
<title>9</title>
<path fill="none" stroke="#566bd8" stroke-width="2" d="M528,-828C528,-828 392,-828 392,-828 386,-828 380,-822 380,-816 380,-816 380,-804 380,-804 380,-798 386,-792 392,-792 392,-792 528,-792 528,-792 534,-792 540,-798 540,-804 540,-804 540,-816 540,-816 540,-822 534,-828 528,-828"/>
<text text-anchor="middle" x="460" y="-807.5" font-family="sans" font-size="10.00">bbmap_read_length_histogram</text>
</g>
<!-- 9&#45;&gt;8 -->
<g id="edge15" class="edge">
<title>9&#45;&gt;8</title>
<path fill="none" stroke="grey" stroke-width="2" d="M459.51,-791.7C459.29,-783.98 459.02,-774.71 458.77,-766.11"/>
<polygon fill="grey" stroke="grey" stroke-width="2" points="462.27,-766 458.49,-756.1 455.28,-766.2 462.27,-766"/>
</g>
<!-- 10 -->
<g id="node11" class="node">
<title>10</title>
<path fill="none" stroke="#97d856" stroke-width="2" d="M418,-612C418,-612 338,-612 338,-612 332,-612 326,-606 326,-600 326,-600 326,-588 326,-588 326,-582 332,-576 338,-576 338,-576 418,-576 418,-576 424,-576 430,-582 430,-588 430,-588 430,-600 430,-600 430,-606 424,-612 418,-612"/>
<text text-anchor="middle" x="378" y="-591.5" font-family="sans" font-size="10.00">star_filter_pass1_sj</text>
</g>
<!-- 10&#45;&gt;4 -->
<g id="edge12" class="edge">
<title>10&#45;&gt;4</title>
<path fill="none" stroke="grey" stroke-width="2" d="M358.22,-575.7C348.25,-566.97 335.99,-556.24 325.14,-546.75"/>
<polygon fill="grey" stroke="grey" stroke-width="2" points="327.38,-544.06 317.55,-540.1 322.77,-549.32 327.38,-544.06"/>
</g>
<!-- 11&#45;&gt;10 -->
<g id="edge16" class="edge">
<title>11&#45;&gt;10</title>
<path fill="none" stroke="grey" stroke-width="2" d="M375.74,-647.7C376.07,-639.98 376.47,-630.71 376.84,-622.11"/>
<polygon fill="grey" stroke="grey" stroke-width="2" points="380.34,-622.25 377.27,-612.1 373.34,-621.95 380.34,-622.25"/>
</g>
<!-- 12&#45;&gt;3 -->
<g id="edge8" class="edge">
<title>12&#45;&gt;3</title>
<path fill="none" stroke="grey" stroke-width="2" d="M206,-431.7C206,-423.98 206,-414.71 206,-406.11"/>
<polygon fill="grey" stroke="grey" stroke-width="2" points="209.5,-406.1 206,-396.1 202.5,-406.1 209.5,-406.1"/>
</g>
<!-- 13&#45;&gt;12 -->
<g id="edge20" class="edge">
<title>13&#45;&gt;12</title>
<path fill="none" stroke="grey" stroke-width="2" d="M189.29,-575.87C192.53,-551.67 198.48,-507.21 202.33,-478.39"/>
<polygon fill="grey" stroke="grey" stroke-width="2" points="205.84,-478.57 203.7,-468.19 198.9,-477.64 205.84,-478.57"/>
</g>
<!-- 14&#45;&gt;2 -->
<g id="edge6" class="edge">
<title>14&#45;&gt;2</title>
<path fill="none" stroke="grey" stroke-width="2" d="M117.35,-503.56C123.08,-473.97 135.29,-412.05 147,-360 148.9,-351.55 151.1,-342.38 153.15,-334.08"/>
<polygon fill="grey" stroke="grey" stroke-width="2" points="156.6,-334.7 155.62,-324.15 149.81,-333.01 156.6,-334.7"/>
</g>
<!-- 15&#45;&gt;0 -->
<g id="edge3" class="edge">
<title>15&#45;&gt;0</title>
<path fill="none" stroke="grey" stroke-width="2" d="M116.65,-143.83C122.65,-125.83 132.56,-96.77 142,-72 145.32,-63.3 149.14,-53.89 152.67,-45.45"/>
<polygon fill="grey" stroke="grey" stroke-width="2" points="155.95,-46.66 156.61,-36.08 149.5,-43.94 155.95,-46.66"/>
</g>
<!-- 16&#45;&gt;15 -->
<g id="edge24" class="edge">
<title>16&#45;&gt;15</title>
<path fill="none" stroke="grey" stroke-width="2" d="M180.26,-215.7C168.56,-206.8 154.14,-195.82 141.49,-186.2"/>
<polygon fill="grey" stroke="grey" stroke-width="2" points="143.56,-183.37 133.48,-180.1 139.32,-188.94 143.56,-183.37"/>
</g>
<!-- 17 -->
<g id="node18" class="node">
<title>17</title>
<path fill="none" stroke="#5682d8" stroke-width="2" d="M351,-180C351,-180 281,-180 281,-180 275,-180 269,-174 269,-168 269,-168 269,-156 269,-156 269,-150 275,-144 281,-144 281,-144 351,-144 351,-144 357,-144 363,-150 363,-156 363,-156 363,-168 363,-168 363,-174 357,-180 351,-180"/>
<text text-anchor="middle" x="316" y="-159.5" font-family="sans" font-size="10.00">diffexp_heatmap</text>
</g>
<!-- 16&#45;&gt;17 -->
<g id="edge28" class="edge">
<title>16&#45;&gt;17</title>
<path fill="none" stroke="grey" stroke-width="2" d="M230.64,-215.88C245.42,-206.72 263.79,-195.34 279.7,-185.48"/>
<polygon fill="grey" stroke="grey" stroke-width="2" points="281.59,-188.43 288.25,-180.19 277.91,-182.48 281.59,-188.43"/>
</g>
<!-- 20 -->
<g id="node21" class="node">
<title>20</title>
<path fill="none" stroke="#68d856" stroke-width="2" d="M238.5,-180C238.5,-180 185.5,-180 185.5,-180 179.5,-180 173.5,-174 173.5,-168 173.5,-168 173.5,-156 173.5,-156 173.5,-150 179.5,-144 185.5,-144 185.5,-144 238.5,-144 238.5,-144 244.5,-144 250.5,-150 250.5,-156 250.5,-156 250.5,-168 250.5,-168 250.5,-174 244.5,-180 238.5,-180"/>
<text text-anchor="middle" x="212" y="-159.5" font-family="sans" font-size="10.00">gsea_msigdb</text>
</g>
<!-- 16&#45;&gt;20 -->
<g id="edge31" class="edge">
<title>16&#45;&gt;20</title>
<path fill="none" stroke="grey" stroke-width="2" d="M205.22,-215.7C206.22,-207.98 207.41,-198.71 208.51,-190.11"/>
<polygon fill="grey" stroke="grey" stroke-width="2" points="212,-190.47 209.8,-180.1 205.05,-189.58 212,-190.47"/>
</g>
<!-- 17&#45;&gt;0 -->
<g id="edge4" class="edge">
<title>17&#45;&gt;0</title>
<path fill="none" stroke="grey" stroke-width="2" d="M312.58,-143.87C307.87,-124.27 297.64,-92.27 278,-72 257.04,-50.37 225.56,-36.66 200.98,-28.61"/>
<polygon fill="grey" stroke="grey" stroke-width="2" points="201.85,-25.22 191.26,-25.61 199.78,-31.91 201.85,-25.22"/>
</g>
<!-- 18&#45;&gt;17 -->
<g id="edge27" class="edge">
<title>18&#45;&gt;17</title>
<path fill="none" stroke="grey" stroke-width="2" d="M310.73,-215.7C311.5,-207.98 312.43,-198.71 313.29,-190.11"/>
<polygon fill="grey" stroke="grey" stroke-width="2" points="316.78,-190.4 314.29,-180.1 309.81,-189.71 316.78,-190.4"/>
</g>
<!-- 19 -->
<g id="node20" class="node">
<title>19</title>
<path fill="none" stroke="#d8c356" stroke-width="2" d="M257,-108C257,-108 163,-108 163,-108 157,-108 151,-102 151,-96 151,-96 151,-84 151,-84 151,-78 157,-72 163,-72 163,-72 257,-72 257,-72 263,-72 269,-78 269,-84 269,-84 269,-96 269,-96 269,-102 263,-108 257,-108"/>
<text text-anchor="middle" x="210" y="-87.5" font-family="sans" font-size="10.00">gsea_msigdb_merged</text>
</g>
<!-- 19&#45;&gt;0 -->
<g id="edge1" class="edge">
<title>19&#45;&gt;0</title>
<path fill="none" stroke="grey" stroke-width="2" d="M198.63,-71.7C193.28,-63.56 186.8,-53.69 180.89,-44.7"/>
<polygon fill="grey" stroke="grey" stroke-width="2" points="183.66,-42.54 175.24,-36.1 177.81,-46.38 183.66,-42.54"/>
</g>
<!-- 20&#45;&gt;19 -->
<g id="edge30" class="edge">
<title>20&#45;&gt;19</title>
<path fill="none" stroke="grey" stroke-width="2" d="M211.51,-143.7C211.29,-135.98 211.02,-126.71 210.77,-118.11"/>
<polygon fill="grey" stroke="grey" stroke-width="2" points="214.27,-118 210.49,-108.1 207.28,-118.2 214.27,-118"/>
</g>
</g>
</svg>
